<svg width="328" height="328" viewBox="0 0 328 328" fill="none" xmlns="http://www.w3.org/2000/svg">
<circle cx="164" cy="164" r="164" fill="#FAE569"/>
<path d="M236.937 164.5C247.586 160.557 254.346 151.38 254.668 150.934C255.19 150.214 255.398 149.313 255.243 148.437C255.089 147.561 254.586 146.785 253.849 146.287C253.393 145.979 243.903 139.668 232.548 139.603C241.204 132.255 244.418 121.32 244.569 120.791C244.814 119.936 244.701 119.018 244.256 118.248C243.811 117.478 243.072 116.921 242.209 116.704C241.676 116.571 230.601 113.887 219.909 117.707C225.529 107.843 224.81 96.4693 224.77 95.9208C224.708 95.0332 224.287 94.2093 223.606 93.6376C222.924 93.0659 222.04 92.7947 221.155 92.8874C220.607 92.9442 209.281 94.2116 200.542 101.46C202.449 90.2682 197.883 79.8246 197.658 79.3225C197.296 78.5102 196.619 77.8798 195.783 77.5754C194.947 77.2714 194.024 77.3189 193.224 77.7083C192.729 77.9489 182.518 83.0117 176.785 92.8102C174.75 81.6416 166.887 73.3948 166.504 73C165.887 72.3608 165.036 72 164.147 72C163.257 72 162.406 72.3608 161.788 72.9997C161.405 73.3944 153.542 81.642 151.507 92.8114C145.773 83.0121 135.564 77.9485 135.069 77.7083C134.269 77.3189 133.346 77.2714 132.51 77.575C131.674 77.8794 130.997 78.5094 130.635 79.3217C130.411 79.8239 125.842 90.2662 127.75 101.458C119.012 94.2112 107.685 92.9442 107.138 92.8871C106.254 92.7944 105.369 93.0655 104.687 93.6372C104.005 94.2089 103.585 95.0328 103.523 95.9204C103.484 96.4685 102.764 107.841 108.384 117.707C97.6935 113.886 86.6172 116.571 86.0838 116.704C85.2212 116.92 84.4827 117.477 84.0381 118.247C83.5935 119.017 83.4799 119.935 83.7241 120.79C83.8751 121.319 87.0858 132.253 95.742 139.603C84.3881 139.669 74.9002 145.979 74.4444 146.287C73.7074 146.785 73.2044 147.561 73.0499 148.437C72.8958 149.313 73.1032 150.214 73.6251 150.934C73.948 151.379 80.7077 160.557 91.3536 164.5C80.7077 168.443 73.948 177.62 73.6251 178.065C73.1029 178.785 72.8954 179.686 73.0499 180.562C73.2044 181.438 73.7078 182.214 74.4444 182.712C74.8998 183.02 84.3865 189.33 95.7401 189.397C87.0854 196.744 83.8747 207.68 83.7237 208.209C83.4796 209.064 83.5931 209.982 84.0377 210.752C84.4827 211.522 85.2209 212.079 86.0834 212.295C86.3974 212.374 90.3629 213.337 95.7525 213.337C99.5213 213.337 103.986 212.861 108.386 211.287C102.763 221.152 103.483 232.526 103.522 233.075C103.585 233.962 104.005 234.786 104.686 235.358C105.281 235.856 106.029 236.126 106.797 236.126C106.91 236.126 107.023 236.12 107.137 236.109C107.684 236.052 119.01 234.788 127.749 227.541C125.841 238.732 130.41 249.172 130.634 249.674C130.997 250.486 131.673 251.116 132.509 251.421C132.873 251.553 133.253 251.619 133.632 251.619C134.125 251.619 134.616 251.508 135.068 251.288C135.562 251.048 145.772 245.987 151.507 236.187C153.542 247.356 161.405 255.605 161.787 256C162.405 256.639 163.257 257 164.146 257C165.036 257 165.887 256.639 166.506 256C166.888 255.605 174.75 247.356 176.786 236.189C182.518 245.988 192.73 251.048 193.225 251.288C193.677 251.508 194.168 251.619 194.661 251.619C195.04 251.619 195.42 251.553 195.784 251.42C196.62 251.116 197.296 250.486 197.659 249.674C197.883 249.172 202.449 238.731 200.542 227.54C209.282 234.788 220.609 236.052 221.156 236.109C221.27 236.12 221.383 236.126 221.496 236.126C222.264 236.126 223.013 235.856 223.606 235.358C224.288 234.786 224.708 233.962 224.771 233.075C224.81 232.526 225.53 221.152 219.907 211.288C224.307 212.862 228.771 213.337 232.54 213.337C237.929 213.337 241.896 212.373 242.21 212.295C243.072 212.079 243.811 211.522 244.256 210.751C244.701 209.981 244.814 209.063 244.57 208.208C244.419 207.679 241.205 196.743 232.551 189.397C243.904 189.33 253.393 183.02 253.849 182.712C254.586 182.214 255.089 181.438 255.244 180.562C255.398 179.686 255.19 178.785 254.669 178.065C254.345 177.62 247.585 168.442 236.937 164.5ZM164.146 216.196C135.64 216.196 112.45 193.005 112.45 164.5C112.45 135.995 135.641 112.803 164.146 112.803C192.652 112.803 215.842 135.995 215.842 164.5C215.842 193.005 192.652 216.196 164.146 216.196ZM230.785 159.403C228.111 159.876 225.221 159.829 222.173 159.285C221.876 155.952 221.298 152.7 220.462 149.55C223.132 148 225.831 146.968 228.51 146.495C235.733 145.223 242.893 147.933 246.904 149.907C243.809 153.136 238.006 158.13 230.785 159.403ZM236.932 122.483C235.141 126.566 231.411 133.231 225.024 136.919C222.668 138.279 219.935 139.225 216.885 139.755C215.474 136.758 213.814 133.901 211.933 131.209C213.917 128.829 216.107 126.93 218.469 125.565C224.825 121.897 232.489 121.998 236.932 122.483ZM218.173 100.123C217.886 104.572 216.661 112.11 211.922 117.757C210.162 119.851 207.909 121.679 205.221 123.219C202.889 120.899 200.362 118.775 197.667 116.872C198.718 113.96 200.125 111.427 201.878 109.336C206.595 103.715 213.832 101.187 218.173 100.123ZM180.736 99.7541C183.242 92.865 189.171 88.0185 192.887 85.5325C194.135 89.8274 195.56 97.35 193.055 104.237C192.12 106.8 190.633 109.282 188.64 111.643C185.671 110.262 182.567 109.124 179.354 108.254C179.348 105.167 179.805 102.314 180.736 99.7541ZM164.146 80.467C166.788 84.0744 170.7 90.654 170.7 97.9843C170.7 100.703 170.153 103.542 169.089 106.448C167.458 106.311 165.811 106.236 164.146 106.236C162.481 106.236 160.834 106.311 159.204 106.448C158.14 103.542 157.593 100.703 157.593 97.9846C157.593 90.6529 161.506 84.0728 164.146 80.467ZM135.408 85.5225C139.118 87.9954 145.034 92.8249 147.557 99.7526C148.487 102.311 148.943 105.165 148.935 108.254C145.723 109.124 142.621 110.261 139.653 111.642C137.66 109.281 136.173 106.8 135.239 104.238C132.728 97.3434 134.159 89.8135 135.408 85.5225ZM126.414 109.334C128.167 111.426 129.575 113.959 130.626 116.872C127.931 118.774 125.404 120.898 123.071 123.218C120.383 121.678 118.13 119.851 116.372 117.759C111.66 112.143 110.426 104.586 110.13 100.125C114.474 101.192 121.702 103.719 126.414 109.334ZM91.3664 122.472C95.7984 121.982 103.436 121.878 109.822 125.564C112.185 126.93 114.374 128.829 116.359 131.208C114.478 133.9 112.819 136.758 111.407 139.755C108.357 139.224 105.623 138.279 103.266 136.92C96.9109 133.25 93.1672 126.562 91.3664 122.472ZM81.3891 149.908C85.4016 147.932 92.5619 145.221 99.7816 146.495C102.462 146.968 105.161 148 107.83 149.55C106.994 152.699 106.416 155.953 106.119 159.286C103.071 159.83 100.18 159.875 97.503 159.403C90.2844 158.13 84.4827 153.134 81.3891 149.908ZM97.5038 169.596C100.187 169.123 103.078 169.168 106.119 169.712C106.416 173.045 106.994 176.299 107.831 179.449C105.161 180.999 102.462 182.031 99.7836 182.504C92.5611 183.777 85.3997 181.066 81.3891 179.092C84.4842 175.863 90.2856 170.868 97.5038 169.596ZM91.3706 206.517C93.1737 202.424 96.9171 195.744 103.268 192.078C105.624 190.716 108.358 189.77 111.406 189.243C112.818 192.24 114.478 195.097 116.359 197.79C114.373 200.169 112.184 202.067 109.823 203.431C103.472 207.098 95.8143 207.001 91.3706 206.517ZM110.131 228.871C110.426 224.409 111.66 216.856 116.372 211.24C118.13 209.147 120.382 207.319 123.069 205.778C125.402 208.099 127.93 210.224 130.626 212.127C129.575 215.039 128.168 217.572 126.415 219.663C121.702 225.28 114.473 227.806 110.131 228.871ZM147.558 229.244C145.048 236.133 139.12 240.979 135.406 243.464C134.156 239.17 132.73 231.649 135.239 224.761C136.172 222.199 137.658 219.717 139.649 217.354C142.618 218.736 145.722 219.874 148.935 220.744C148.943 223.833 148.487 226.687 147.558 229.244ZM164.147 248.531C161.505 244.923 157.593 238.342 157.593 231.011C157.593 228.291 158.14 225.453 159.204 222.551C160.834 222.688 162.481 222.762 164.146 222.762C165.811 222.762 167.459 222.688 169.089 222.551C170.153 225.453 170.7 228.291 170.7 231.011C170.7 238.342 166.788 244.924 164.147 248.531ZM192.884 243.474C189.174 241.002 183.257 236.174 180.736 229.245C179.805 226.686 179.348 223.832 179.354 220.744C182.568 219.875 185.671 218.737 188.641 217.355C190.638 219.72 192.125 222.202 193.055 224.76C195.562 231.654 194.133 239.183 192.884 243.474ZM201.88 219.665C200.125 217.572 198.718 215.039 197.667 212.126C200.363 210.224 202.89 208.099 205.223 205.777C207.911 207.318 210.163 209.146 211.921 211.24C216.633 216.856 217.867 224.411 218.163 228.871C213.819 227.806 206.591 225.28 201.88 219.665ZM236.922 206.517C232.476 207 224.82 207.097 218.471 203.431C216.109 202.067 213.919 200.168 211.933 197.789C213.815 195.097 215.474 192.239 216.885 189.243C219.932 189.771 222.665 190.716 225.024 192.08C231.374 195.745 235.119 202.426 236.922 206.517ZM228.511 182.505C225.831 182.031 223.132 180.999 220.461 179.449C221.298 176.299 221.876 173.045 222.173 169.712C225.213 169.168 228.103 169.123 230.786 169.596C238.007 170.869 243.81 175.865 246.904 179.092C242.891 181.067 235.731 183.777 228.511 182.505Z" fill="black"/>
<path d="M164.146 117.51C138.236 117.51 117.156 138.589 117.156 164.499C117.156 190.409 138.236 211.488 164.146 211.488C190.056 211.488 211.135 190.409 211.135 164.499C211.135 138.589 190.056 117.51 164.146 117.51ZM201.383 156.124L197.65 159.858L193.919 156.127L197.652 152.393L201.383 156.124ZM176.258 164.501L172.524 168.235L168.791 164.501L172.524 160.767L176.258 164.501ZM177.168 156.124L180.899 152.393L184.632 156.127L180.901 159.858L177.168 156.124ZM180.901 169.144L184.632 172.875L180.899 176.609L177.168 172.878L180.901 169.144ZM185.544 164.501L189.275 160.77L193.006 164.501L189.275 168.232L185.544 164.501ZM189.275 151.483L185.542 147.75L189.275 144.016L193.009 147.75L189.275 151.483ZM180.899 143.107L177.165 139.373L180.899 135.639L184.632 139.373L180.899 143.107ZM176.255 147.75L172.524 151.481L168.791 147.747L172.522 144.016L176.255 147.75ZM167.881 156.124L164.147 159.858L160.414 156.124L164.147 152.39L167.881 156.124ZM142.75 164.501L139.019 168.232L135.288 164.501L139.019 160.77L142.75 164.501ZM143.662 156.127L147.396 152.393L151.127 156.124L147.393 159.857L143.662 156.127ZM147.393 169.144L151.127 172.878L147.397 176.609L143.662 172.875L147.393 169.144ZM152.036 164.501L155.77 160.767L159.504 164.501L155.77 168.235L152.036 164.501ZM155.77 151.481L152.039 147.75L155.773 144.016L159.504 147.747L155.77 151.481ZM147.396 143.107L143.662 139.373L147.396 135.639L151.13 139.373L147.396 143.107ZM142.753 147.75L139.019 151.484L135.285 147.75L139.019 144.015L142.753 147.75ZM134.376 156.127L130.644 159.858L126.91 156.124L130.642 152.392L134.376 156.127ZM123.723 164.499C123.723 163.756 123.745 163.018 123.784 162.284L126.002 164.501L123.785 166.718C123.745 165.983 123.723 165.244 123.723 164.499ZM126.911 172.878L130.645 169.144L134.376 172.875L130.642 176.609L126.911 172.878ZM139.019 177.518L142.753 181.253L139.019 184.986L135.285 181.252L139.019 177.518ZM147.396 185.895L151.13 189.629L147.396 193.363L143.662 189.629L147.396 185.895ZM152.039 181.252L155.77 177.521L159.504 181.255L155.773 184.986L152.039 181.252ZM160.414 172.878L164.147 169.144L167.881 172.878L164.147 176.612L160.414 172.878ZM172.524 177.521L176.255 181.252L172.522 184.986L168.791 181.255L172.524 177.521ZM180.899 185.895L184.632 189.629L180.899 193.363L177.165 189.629L180.899 185.895ZM185.542 181.252L189.275 177.518L193.009 181.252L189.275 184.985L185.542 181.252ZM193.919 172.875L197.65 169.144L201.383 172.878L197.652 176.609L193.919 172.875ZM204.569 164.499C204.569 165.243 204.547 165.981 204.507 166.715L202.293 164.501L204.508 162.287C204.547 163.019 204.569 163.757 204.569 164.499ZM197.652 143.106L193.919 139.373L194.943 138.348C196.095 139.702 197.16 141.132 198.128 142.631L197.652 143.106ZM189.276 134.73L185.542 130.996L186.018 130.52C187.517 131.488 188.947 132.553 190.3 133.705L189.276 134.73ZM176.255 130.996L172.521 134.73L168.79 130.999L172.524 127.265L176.255 130.996ZM167.878 139.373L164.147 143.104L160.416 139.373L164.147 135.641L167.878 139.373ZM155.773 134.73L152.039 130.996L155.77 127.265L159.504 130.999L155.773 134.73ZM142.753 130.996L139.019 134.73L137.993 133.704C139.347 132.552 140.777 131.486 142.275 130.519L142.753 130.996ZM134.376 139.373L130.642 143.107L130.165 142.63C131.133 141.131 132.198 139.701 133.35 138.347L134.376 139.373ZM130.642 185.895L134.376 189.63L133.352 190.654C132.2 189.3 131.135 187.87 130.167 186.371L130.642 185.895ZM139.019 194.272L142.753 198.006L142.278 198.482C140.779 197.514 139.349 196.449 137.995 195.297L139.019 194.272ZM152.039 198.006L155.773 194.272L159.504 198.003L155.77 201.737L152.039 198.006ZM160.416 189.629L164.147 185.898L167.878 189.629L164.147 193.36L160.416 189.629ZM172.521 194.272L176.255 198.006L172.524 201.737L168.79 198.003L172.521 194.272ZM185.542 198.006L189.275 194.272L190.298 195.295C188.944 196.447 187.514 197.512 186.016 198.48L185.542 198.006ZM193.919 189.629L197.653 185.895L198.127 186.37C197.159 187.869 196.094 189.298 194.942 190.652L193.919 189.629ZM166.364 124.138L164.147 126.355L161.93 124.138C162.664 124.098 163.402 124.076 164.146 124.076C164.891 124.076 165.63 124.098 166.364 124.138ZM161.933 204.861L164.147 202.647L166.361 204.86C165.627 204.9 164.889 204.922 164.146 204.922C163.403 204.922 162.666 204.901 161.933 204.861Z" fill="black"/>
</svg>
